<svg width="364" height="361" viewBox="0 0 364 361" fill="none" xmlns="http://www.w3.org/2000/svg">
<path d="M182 0.5C282.244 0.5 363.5 81.0926 363.5 180.5C363.5 279.907 282.244 360.5 182 360.5C81.7564 360.5 0.5 279.907 0.5 180.5C0.5 81.0926 81.7564 0.5 182 0.5Z" fill="url(#paint0_linear_381_916)" stroke="#3A75FF"/>
<path d="M123.243 215.5V145.682H150.789C156.084 145.682 160.595 146.693 164.323 148.716C168.05 150.716 170.891 153.5 172.845 157.068C174.823 160.614 175.811 164.705 175.811 169.341C175.811 173.977 174.811 178.068 172.811 181.614C170.811 185.159 167.914 187.92 164.118 189.898C160.345 191.875 155.777 192.864 150.414 192.864H132.857V181.034H148.027C150.868 181.034 153.209 180.545 155.05 179.568C156.914 178.568 158.3 177.193 159.209 175.443C160.141 173.67 160.607 171.636 160.607 169.341C160.607 167.023 160.141 165 159.209 163.273C158.3 161.523 156.914 160.17 155.05 159.216C153.186 158.239 150.823 157.75 147.959 157.75H138.005V215.5H123.243ZM212.765 217.034C206.902 217.011 201.856 215.568 197.629 212.705C193.424 209.841 190.186 205.693 187.913 200.261C185.663 194.83 184.549 188.295 184.572 180.659C184.572 173.045 185.697 166.557 187.947 161.193C190.22 155.83 193.459 151.75 197.663 148.955C201.89 146.136 206.924 144.727 212.765 144.727C218.606 144.727 223.629 146.136 227.834 148.955C232.061 151.773 235.311 155.864 237.584 161.227C239.856 166.568 240.981 173.045 240.959 180.659C240.959 188.318 239.822 194.864 237.549 200.295C235.299 205.727 232.072 209.875 227.868 212.739C223.663 215.602 218.629 217.034 212.765 217.034ZM212.765 204.795C216.765 204.795 219.959 202.784 222.345 198.761C224.731 194.739 225.913 188.705 225.89 180.659C225.89 175.364 225.345 170.955 224.254 167.432C223.186 163.909 221.663 161.261 219.686 159.489C217.731 157.716 215.424 156.83 212.765 156.83C208.788 156.83 205.606 158.818 203.22 162.795C200.834 166.773 199.629 172.727 199.606 180.659C199.606 186.023 200.14 190.5 201.209 194.091C202.299 197.659 203.834 200.341 205.811 202.136C207.788 203.909 210.106 204.795 212.765 204.795Z" fill="white"/>
<defs>
<linearGradient id="paint0_linear_381_916" x1="182" y1="0" x2="182" y2="361" gradientUnits="userSpaceOnUse">
<stop stop-color="#0B6AE5"/>
<stop offset="1" stop-color="#1C0668"/>
</linearGradient>
</defs>
</svg>
