<svg width="89" height="134" viewBox="0 0 89 134" fill="none" xmlns="http://www.w3.org/2000/svg">
<path d="M2.5 133.3C0.833331 133.3 -2.5034e-06 132.467 -2.5034e-06 130.8V38.1C-2.5034e-06 37.2333 0.333331 36.2333 0.999997 35.1L24.7 1.49998C25.4333 0.499981 26.5 -1.85966e-05 27.9 -1.85966e-05H61C62.4667 -1.85966e-05 63.5333 0.499981 64.2 1.49998L88 35.1C88.6667 36.0333 89 37.0333 89 38.1V130.8C89 132.467 88.1667 133.3 86.5 133.3H58.2C56.5333 133.3 55.7 132.467 55.7 130.8V88.3H33.4V130.8C33.4 132.467 32.5667 133.3 30.9 133.3H2.5ZM44.5 66.8C50.6333 66.8 54.7667 65.4667 56.9 62.8C59.1 60.0666 60.2 54.9 60.2 47.3C60.2 39.7 59.1 34.5667 56.9 31.9C54.7667 29.1666 50.6333 27.8 44.5 27.8C38.4333 27.8 34.3 29.1666 32.1 31.9C29.9667 34.5667 28.9 39.7 28.9 47.3C28.9 54.9 29.9667 60.0666 32.1 62.8C34.3 65.4667 38.4333 66.8 44.5 66.8Z" fill="white"/>
</svg>
