<svg width="218" height="216" viewBox="0 0 218 216" fill="none" xmlns="http://www.w3.org/2000/svg">
<ellipse cx="109" cy="108" rx="109" ry="108" fill="#76AE51"/>
<path d="M71.4705 131V84.4545H89.8341C93.3644 84.4545 96.372 85.1288 98.8568 86.4773C101.342 87.8106 103.236 89.6667 104.539 92.0455C105.857 94.4091 106.516 97.1364 106.516 100.227C106.516 103.318 105.849 106.045 104.516 108.409C103.183 110.773 101.251 112.614 98.7205 113.932C96.2053 115.25 93.1598 115.909 89.5841 115.909H77.8795V108.023H87.9932C89.8871 108.023 91.4477 107.697 92.675 107.045C93.9174 106.379 94.8417 105.462 95.4477 104.295C96.0689 103.114 96.3795 101.758 96.3795 100.227C96.3795 98.6818 96.0689 97.3333 95.4477 96.1818C94.8417 95.0151 93.9174 94.1136 92.675 93.4773C91.4326 92.8258 89.8568 92.5 87.9477 92.5H81.3114V131H71.4705ZM113.035 131V123.909L129.603 108.568C131.013 107.205 132.194 105.977 133.149 104.886C134.119 103.795 134.853 102.727 135.353 101.682C135.853 100.621 136.103 99.4773 136.103 98.25C136.103 96.8864 135.793 95.7121 135.172 94.7273C134.55 93.7273 133.702 92.9621 132.626 92.4318C131.55 91.8864 130.331 91.6136 128.967 91.6136C127.543 91.6136 126.3 91.9015 125.24 92.4773C124.179 93.053 123.361 93.8788 122.785 94.9545C122.209 96.0303 121.922 97.3106 121.922 98.7955H112.581C112.581 95.75 113.27 93.1061 114.649 90.8636C116.028 88.6212 117.959 86.8864 120.444 85.6591C122.929 84.4318 125.793 83.8182 129.035 83.8182C132.369 83.8182 135.27 84.4091 137.74 85.5909C140.225 86.7576 142.156 88.3788 143.535 90.4545C144.914 92.5303 145.603 94.9091 145.603 97.5909C145.603 99.3485 145.255 101.083 144.558 102.795C143.876 104.508 142.656 106.409 140.899 108.5C139.141 110.576 136.664 113.068 133.467 115.977L126.672 122.636V122.955H146.217V131H113.035Z" fill="white"/>
</svg>
