<svg width="487" height="487" viewBox="0 0 487 487" fill="none" xmlns="http://www.w3.org/2000/svg">
<g clip-path="url(#clip0_72_316)">
<path d="M173.113 490.805C218.389 490.805 254.914 454.28 254.914 409.004V327.203H173.113C127.838 327.203 91.3125 363.728 91.3125 409.004C91.3125 454.28 127.838 490.805 173.113 490.805Z" fill="#0ACF83"/>
<path d="M91.3125 245.402C91.3125 200.127 127.838 163.602 173.113 163.602H254.914V327.203H173.113C127.838 327.203 91.3125 290.678 91.3125 245.402Z" fill="#A259FF"/>
<path d="M91.3125 81.8008C91.3125 36.525 127.838 0 173.113 0H254.914V163.602H173.113C127.838 163.602 91.3125 127.077 91.3125 81.8008Z" fill="#F24E1E"/>
<path d="M254.914 0H336.715C381.991 0 418.516 36.525 418.516 81.8008C418.516 127.077 381.991 163.602 336.715 163.602H254.914V0Z" fill="#FF7262"/>
<path d="M418.516 245.402C418.516 290.678 381.991 327.203 336.715 327.203C291.439 327.203 254.914 290.678 254.914 245.402C254.914 200.127 291.439 163.602 336.715 163.602C381.991 163.602 418.516 200.127 418.516 245.402Z" fill="#1ABCFE"/>
</g>
<defs>
<clipPath id="clip0_72_316">
<rect width="487" height="487" fill="white"/>
</clipPath>
</defs>
</svg>
