<svg width="100" height="100" viewBox="0 0 100 100" fill="none" xmlns="http://www.w3.org/2000/svg">
<g clip-path="url(#clip0_74_334)">
<path d="M0 25C0 11.193 11.193 0 25 0H75C88.807 0 100 11.193 100 25V75C100 88.807 88.807 100 75 100H25C11.193 100 0 88.807 0 75V25Z" fill="#FFDD33"/>
<path d="M66.4824 19.0625H57.4047L64.9695 32.3539L48.327 19.0625H39.2492L47.5707 35.3078L30.1715 19.0625H21.0938L30.1715 39.741L21.0938 81.0938H30.1715L47.5707 36.7867L39.2492 81.0938H48.327L64.9695 33.8328L57.4047 81.0938H66.4824L83.125 29.3996L66.4824 19.0625Z" fill="black"/>
</g>
<defs>
<clipPath id="clip0_74_334">
<rect width="100" height="100" fill="white"/>
</clipPath>
</defs>
</svg>
