<svg width="451" height="451" viewBox="0 0 451 451" fill="none" xmlns="http://www.w3.org/2000/svg">
<path d="M79.8658 5.63745H371.134C415.297 5.63745 451 41.3404 451 85.5032V365.497C451 409.659 415.297 445.362 371.134 445.362H79.8658C35.703 445.362 0 409.659 0 365.497V85.5032C0 41.3404 35.703 5.63745 79.8658 5.63745Z" fill="#001E36"/>
<path d="M161.61 117.447C155.972 117.447 150.335 117.447 144.51 117.637C138.683 117.824 133.232 117.824 128.158 118.014C123.084 118.201 118.388 118.201 113.878 118.388C109.554 118.574 106.549 118.574 103.353 118.574C102.039 118.574 101.475 119.325 101.475 120.643V314.009C101.475 315.7 102.226 316.454 103.73 316.454H140.187C141.501 316.264 142.442 315.136 142.252 313.822V253.501C145.821 253.501 148.453 253.501 150.335 253.688C152.213 253.874 155.218 253.874 159.728 253.874C175.14 253.874 189.233 252.183 202.009 247.486C214.225 242.976 224.75 235.084 232.265 224.559C239.782 214.036 243.54 200.694 243.54 184.533C243.54 176.077 242.039 167.998 239.22 160.105C236.234 152.064 231.555 144.759 225.5 138.683C218.354 131.74 209.752 126.476 200.318 123.271C189.794 119.325 177.018 117.447 161.61 117.447ZM165.802 154.46C172.497 154.587 179.015 155.757 185.097 158.224C190.548 160.292 195.058 164.051 198.253 168.935C201.25 173.989 202.75 179.791 202.577 185.664C202.577 193.93 200.695 200.322 196.749 205.018C192.612 209.715 187.352 213.288 181.341 214.979C174.386 217.234 167.057 218.358 159.728 218.358H149.767C147.512 218.358 145.074 218.171 142.442 217.985V154.845C143.756 154.654 146.388 154.468 150.148 154.658C153.717 154.468 158.037 154.468 162.924 154.468C163.887 154.444 164.846 154.442 165.802 154.46ZM323.406 164.055C310.063 164.055 298.974 166.12 290.145 170.63C282.065 174.389 275.11 180.4 270.413 187.916C266.28 194.871 264.022 202.573 264.022 210.656C263.861 217.304 265.346 223.888 268.345 229.823C271.86 236.143 276.739 241.6 282.629 245.795C290.896 251.449 299.866 255.998 309.312 259.325C318.519 262.894 324.72 265.713 327.729 268.155C330.735 270.6 332.239 273.042 332.239 275.674C332.239 279.056 330.171 282.252 327.165 283.566C323.783 285.258 318.709 286.198 311.567 286.198C304.052 286.198 296.533 285.258 289.391 283.38C281.19 281.548 273.328 278.441 266.09 274.173C265.526 273.796 264.963 273.609 264.399 273.986C263.835 274.36 263.648 275.11 263.648 275.674V308.371C263.462 309.876 264.399 311.19 265.717 311.941C271.81 314.787 278.256 316.81 284.884 317.955C293.34 319.646 301.793 320.397 310.436 320.397C323.966 320.397 335.245 318.332 344.451 314.386C352.908 311.003 360.236 305.179 365.497 297.66C370.424 290.268 372.98 281.55 372.826 272.668C373.011 265.959 371.527 259.308 368.506 253.314C364.933 246.923 359.859 241.662 353.658 237.716C344.586 232.019 334.873 227.413 324.72 223.996C320.186 222.119 315.734 220.05 311.377 217.794C308.935 216.48 306.68 214.789 304.989 212.721C303.861 211.216 303.111 209.528 303.111 207.837C303.111 206.146 303.675 204.268 304.612 202.763C305.93 200.885 307.994 199.568 310.436 199.004C314.009 198.067 317.955 197.499 321.711 197.686C328.853 197.686 335.805 198.627 342.76 200.131C349.152 201.446 355.163 203.514 360.8 206.523C361.551 206.896 362.491 206.896 364.183 206.523C364.476 206.305 364.714 206.021 364.878 205.695C365.041 205.368 365.125 205.007 365.123 204.641V174.012C365.123 173.258 364.933 172.508 364.746 171.757C364.369 171.007 363.619 170.253 362.868 170.066C357.685 167.947 352.255 166.495 346.706 165.743C338.99 164.619 331.203 164.057 323.406 164.055Z" fill="#31A8FF"/>
</svg>
