<svg width="277" height="275" viewBox="0 0 277 275" fill="none" xmlns="http://www.w3.org/2000/svg">
<ellipse cx="138.5" cy="137.5" rx="138.5" ry="137.5" fill="#76AE51"/>
<path d="M96.3881 166.5V108.318H119.343C123.755 108.318 127.515 109.161 130.621 110.847C133.727 112.513 136.095 114.833 137.723 117.807C139.371 120.761 140.195 124.17 140.195 128.034C140.195 131.898 139.362 135.307 137.695 138.261C136.028 141.216 133.613 143.517 130.451 145.165C127.307 146.812 123.5 147.636 119.03 147.636H104.399V137.778H117.041C119.409 137.778 121.36 137.371 122.894 136.557C124.447 135.723 125.602 134.578 126.36 133.119C127.136 131.642 127.524 129.947 127.524 128.034C127.524 126.102 127.136 124.417 126.36 122.977C125.602 121.519 124.447 120.392 122.894 119.597C121.341 118.782 119.371 118.375 116.985 118.375H108.689V166.5H96.3881ZM173.557 108.318V166.5H161.255V119.994H160.914L147.591 128.347V117.438L161.994 108.318H173.557Z" fill="white"/>
</svg>
